<svg id="visual" viewBox="0 0 960 300" width="960" height="300" xmlns="http://www.w3.org/2000/svg" xmlns:xlink="http://www.w3.org/1999/xlink" version="1.1"><rect x="0" y="0" width="960" height="300" fill="#AAA9BC"></rect><path d="M0 206L22.8 210.8C45.7 215.7 91.3 225.3 137 232.8C182.7 240.3 228.3 245.7 274 247.2C319.7 248.7 365.3 246.3 411.2 240.8C457 235.3 503 226.7 548.8 224.7C594.7 222.7 640.3 227.3 686 230C731.7 232.7 777.3 233.3 823 228C868.7 222.7 914.3 211.3 937.2 205.7L960 200L960 301L937.2 301C914.3 301 868.7 301 823 301C777.3 301 731.7 301 686 301C640.3 301 594.7 301 548.8 301C503 301 457 301 411.2 301C365.3 301 319.7 301 274 301C228.3 301 182.7 301 137 301C91.3 301 45.7 301 22.8 301L0 301Z" fill="#4C5675" stroke-linecap="round" stroke-linejoin="miter"></path></svg>