<svg id="visual" viewBox="0 0 960 300" width="960" height="300" xmlns="http://www.w3.org/2000/svg" xmlns:xlink="http://www.w3.org/1999/xlink" version="1.1"><rect x="0" y="0" width="960" height="300" fill="#4C5675"></rect><path d="M0 208L22.8 204.5C45.7 201 91.3 194 137 193.3C182.7 192.7 228.3 198.3 274 206.3C319.7 214.3 365.3 224.7 411.2 233.2C457 241.7 503 248.3 548.8 241C594.7 233.7 640.3 212.3 686 203C731.7 193.7 777.3 196.3 823 200.2C868.7 204 914.3 209 937.2 211.5L960 214L960 301L937.2 301C914.3 301 868.7 301 823 301C777.3 301 731.7 301 686 301C640.3 301 594.7 301 548.8 301C503 301 457 301 411.2 301C365.3 301 319.7 301 274 301C228.3 301 182.7 301 137 301C91.3 301 45.7 301 22.8 301L0 301Z" fill="#F3EFF5" stroke-linecap="round" stroke-linejoin="miter"></path></svg>