<svg id="visual" viewBox="0 0 960 300" width="960" height="300" xmlns="http://www.w3.org/2000/svg" xmlns:xlink="http://www.w3.org/1999/xlink" version="1.1"><rect x="0" y="0" width="960" height="300" fill="#94bbe9"></rect><path d="M0 248L22.8 240.2C45.7 232.3 91.3 216.7 137 212.2C182.7 207.7 228.3 214.3 274 223.8C319.7 233.3 365.3 245.7 411.2 242.2C457 238.7 503 219.3 548.8 216.8C594.7 214.3 640.3 228.7 686 226.5C731.7 224.3 777.3 205.7 823 202.2C868.7 198.7 914.3 210.3 937.2 216.2L960 222L960 301L937.2 301C914.3 301 868.7 301 823 301C777.3 301 731.7 301 686 301C640.3 301 594.7 301 548.8 301C503 301 457 301 411.2 301C365.3 301 319.7 301 274 301C228.3 301 182.7 301 137 301C91.3 301 45.7 301 22.8 301L0 301Z" fill="#AAA9BC" stroke-linecap="round" stroke-linejoin="miter"></path></svg>